<svg xmlns="http://www.w3.org/2000/svg" width="85" height="62.284" viewBox="0 0 85 62.284">
  <path id="Path_1069" data-name="Path 1069" d="M198.005,608.022q14.023,0,28.048,0a14.105,14.105,0,0,1,14.14,11.7,14.479,14.479,0,0,1,.239,2.7c.016,11.219.079,22.439-.016,33.657a13.578,13.578,0,0,1-8.482,13.071,14.212,14.212,0,0,1-5.989,1.154q-21.941-.022-43.881-.009c-4.072,0-8.143.016-12.215,0A14.089,14.089,0,0,1,155.7,658.5a14.9,14.9,0,0,1-.217-2.7q-.021-16.693-.005-33.386a14.171,14.171,0,0,1,14.39-14.392Q183.936,608.012,198.005,608.022Zm-31.248,6.091c.352.378.529.58.717.77q12.059,12.127,24.12,24.251c3.824,3.84,8.9,3.832,12.741-.009q12.063-12.058,24.129-24.112a3.919,3.919,0,0,1,.87-.5l-.234-.432a20.239,20.239,0,0,0-2.818-.393q-28.276-.035-56.551,0A21.664,21.664,0,0,0,166.757,614.113Zm.072,50.2c1.21.125,2.243.321,3.277.322q27.763.029,55.527,0a31.026,31.026,0,0,0,3.483-.385L208.3,643.516a14.537,14.537,0,0,1-20.525-.065Zm-4.522-46.355a8.206,8.206,0,0,0-1.145,4.473q.014,16.648.008,33.294a5.82,5.82,0,0,0,.061,1.352c.263,1.093.6,2.169.918,3.3l21.206-21.286ZM212.6,639.1l21.047,21.121a8.374,8.374,0,0,0,1.109-4.52q-.015-16.467-.008-32.933a13.634,13.634,0,0,0-.055-1.626,6.456,6.456,0,0,0-1.086-3.123Z" transform="translate(-155.468 -608.02)" fill="#535b6d"/>
</svg>
