<svg xmlns="http://www.w3.org/2000/svg" width="71.505" height="80" viewBox="0 0 71.505 80">
  <path id="Path_1052" data-name="Path 1052" d="M822.122,536.99H806.548a8.113,8.113,0,0,1-8.537-7.246c-1.216-7.841-2.364-15.693-3.543-23.54-.606-4.035-1.227-8.068-1.819-12.106-.071-.481-.24-.647-.738-.7a5.787,5.787,0,0,1-3.2-10.275q10-8.541,20.011-17.058c2.763-2.355,5.511-4.729,8.3-7.06a8.091,8.091,0,0,1,10.743.058q13.992,11.985,27.97,23.986a5.8,5.8,0,0,1-3.411,10.392.88.88,0,0,0-.615.562c-.878,5.657-1.721,11.319-2.57,16.98-.967,6.446-1.9,12.9-2.915,19.336a8.088,8.088,0,0,1-8.012,6.661c-5.361.025-10.723.007-16.085.007ZM852.4,487.908a6.191,6.191,0,0,0-.723-.967q-13.666-11.773-27.351-23.53a2.792,2.792,0,0,0-4.166-.027l-22.712,19.527c-1.839,1.581-3.677,3.163-5.674,4.882a8.427,8.427,0,0,0,.972.175,5.706,5.706,0,0,1,5.312,4.387c.19.826.286,1.674.413,2.515q1.667,11.1,3.329,22.2.915,6.1,1.846,12.188a2.383,2.383,0,0,0,2.146,2.215c1.818.154,3.658.04,5.54.04v-.99c0-6.043-.012-12.085,0-18.128A7.939,7.939,0,0,1,818,504.511a50.223,50.223,0,0,1,6.7-.188,8.133,8.133,0,0,1,8.416,8.429q.009,8.937,0,17.872v.931c1.655,0,3.185,0,4.714,0,2.043,0,2.989-.858,3.28-2.889.515-3.591,1.053-7.178,1.59-10.765q1.766-11.814,3.545-23.625a12.2,12.2,0,0,1,.571-2.649C847.768,489.251,849.654,488.115,852.4,487.908Zm-24.757,43.606c.013-.172.031-.307.031-.442q0-9.276-.007-18.552a2.672,2.672,0,0,0-2.744-2.751c-1.7-.023-3.4-.005-5.106,0a2.749,2.749,0,0,0-3.034,3.065q0,8.936,0,17.871c0,.272.025.543.038.812Z" transform="translate(-786.52 -456.994)" fill="#fff"/>
</svg>
