<svg xmlns="http://www.w3.org/2000/svg" width="83" height="71.849" viewBox="0 0 83 71.849">
  <g id="Group_524" data-name="Group 524" transform="translate(-350.51 -451.036)">
    <path id="Path_1048" data-name="Path 1048" d="M401.485,485.711a11.023,11.023,0,0,1,10.974-1.288,10.485,10.485,0,0,1,4.464,3.5c4.718,6.323,9.385,12.682,14.143,18.974a11.137,11.137,0,0,1-2.922,16.507,10.959,10.959,0,0,1-5.715,1.561c-19.346,0-38.693.034-58.039-.025a13.8,13.8,0,0,1-10.982-22.1q9.558-12.919,19.279-25.72a13.785,13.785,0,0,1,22.084-.108c2.059,2.65,4.087,5.324,6.131,7.985C401.08,485.224,401.269,485.446,401.485,485.711Zm-17.67,33.729c6.418,0,12.837.022,19.255-.009a8.289,8.289,0,0,0,6.643-13.323q-9.557-12.807-19.178-25.567a8.258,8.258,0,0,0-13.511.04Q367.5,493.249,358,505.934a8.309,8.309,0,0,0,6.739,13.508Q374.275,519.436,383.815,519.44Zm30.542,0c2.544,0,5.161-.02,7.778.006a5.381,5.381,0,0,0,5.269-3.022,5.441,5.441,0,0,0-.725-6.109c-2.61-3.446-5.19-6.915-7.784-10.373-2.153-2.87-4.293-5.751-6.465-8.606a5.378,5.378,0,0,0-7.74-1.132c.221.3.443.6.668.906,2.894,3.858,5.8,7.707,8.678,11.578a13.317,13.317,0,0,1,2.353,11.767A39.33,39.33,0,0,1,414.357,519.44Z" transform="translate(0 -2.088)" fill="#535b6d"/>
    <path id="Path_1049" data-name="Path 1049" d="M423.212,451.036a11.056,11.056,0,0,1,.009,22.111,11.056,11.056,0,1,1-.009-22.111Zm.053,5.522a5.52,5.52,0,1,0,5.471,5.522A5.5,5.5,0,0,0,423.265,456.558Z" transform="translate(-6.28)" fill="#535b6d"/>
  </g>
</svg>
