<svg xmlns="http://www.w3.org/2000/svg" width="58.691" height="80" viewBox="0 0 58.691 80">
  <g id="Group_531" data-name="Group 531" transform="translate(-975.575 -469.797)">
    <path id="Path_1062" data-name="Path 1062" d="M1034.266,511.719c-.185,10.147-5.027,20.107-13.7,28.312a51.561,51.561,0,0,1-14.218,9.4,2.914,2.914,0,0,1-2.541.129c-9.651-4.364-17.551-10.755-22.889-20.021-8.411-14.6-6.782-32.262,4.1-45.44a51.1,51.1,0,0,1,18.634-14,2.74,2.74,0,0,1,2.384-.058c11.255,5.134,20,12.857,25.053,24.359C1033.239,499.3,1034.268,504.451,1034.266,511.719Zm-53.382-2.385a35.137,35.137,0,0,0,3.274,14.877c4.342,9.1,11.429,15.4,20.356,19.787a1.33,1.33,0,0,0,1.008-.092,44.92,44.92,0,0,0,15.1-11.694c9.121-10.963,10.895-25.548,4.523-37.928-4.39-8.529-11.258-14.484-19.776-18.656a1.423,1.423,0,0,0-1.081.087,44.648,44.648,0,0,0-11.847,8.212C984.99,491.2,980.882,499.949,980.884,509.334Z" fill="#535b6d"/>
    <path id="Path_1063" data-name="Path 1063" d="M1002.242,521.984c0-3.008.006-5.79,0-8.573-.005-1.731.436-3.657-.181-5.139s-2.3-2.524-3.519-3.749q-4.369-4.371-8.747-8.733a2.6,2.6,0,0,1-.726-2.879,2.546,2.546,0,0,1,2.285-1.775,2.722,2.722,0,0,1,2.284.919c2.579,2.6,5.175,5.192,7.756,7.8a5.739,5.739,0,0,1,.546.755l.3-.141v-.872q0-8.057,0-16.112a2.715,2.715,0,0,1,2.481-3.009,2.687,2.687,0,0,1,2.876,2.952c.011,4.035,0,8.07,0,12.105v5.1c.362-.333.589-.527.8-.738q3.945-3.951,7.886-7.906a2.617,2.617,0,0,1,2.81-.724,2.539,2.539,0,0,1,1.782,2,2.724,2.724,0,0,1-.9,2.611c-3.888,3.868-7.755,7.757-11.66,11.608a2.25,2.25,0,0,0-.732,1.781c.031,3.864.014,7.729.014,11.593v1.114c.354-.326.578-.517.785-.724q6.537-6.543,13.066-13.094a2.818,2.818,0,0,1,2.418-1.005,2.542,2.542,0,0,1,2.251,1.82,2.6,2.6,0,0,1-.712,2.809q-5.13,5.118-10.255,10.239c-2.353,2.349-4.717,4.686-7.042,7.062a1.88,1.88,0,0,0-.488,1.169c-.049,2.045,0,4.092-.031,6.137a2.645,2.645,0,0,1-1.892,2.644,2.5,2.5,0,0,1-2.87-.939,4.083,4.083,0,0,1-.565-1.907c-.072-1.93-.046-3.864-.014-5.8a1.781,1.781,0,0,0-.581-1.414q-8.556-8.5-17.086-17.031a2.781,2.781,0,0,1-.888-2.924,2.66,2.66,0,0,1,4.339-1.191c.613.549,1.172,1.158,1.754,1.741q5.813,5.821,11.626,11.641C1001.633,521.418,1001.858,521.621,1002.242,521.984Z" fill="#535b6d"/>
  </g>
</svg>
