<svg xmlns="http://www.w3.org/2000/svg" width="86" height="79" viewBox="0 0 86 79">
  <g id="Group_527" data-name="Group 527" transform="translate(-113 -4902)">
    <g id="Group_525" data-name="Group 525" transform="translate(-369.028 4464.129)">
      <path id="Path_1050" data-name="Path 1050" d="M530.028,484.733c-.12,7.352-2.462,13.17-7.212,17.973-4.089,4.134-8.224,8.223-12.329,12.34a5.671,5.671,0,0,1-6.43,1.376,8.846,8.846,0,0,1-3.258-2.1c-3.831-3.836-7.676-7.658-11.49-11.51a24.1,24.1,0,1,1,40.3-21.784C529.843,482.449,529.935,483.9,530.028,484.733Zm-44.016,1.707a19.835,19.835,0,0,0,6.066,13.456q5.71,5.744,11.459,11.45a8.791,8.791,0,0,0,1.944,1.291,1.657,1.657,0,0,0,2.167-.43c4.037-4.068,8.116-8.095,12.146-12.169a19.988,19.988,0,0,0,5.821-18.616A19.787,19.787,0,0,0,502.6,465.5C492.779,467.248,486.032,475.355,486.012,486.44Z" fill="#535b6d"/>
      <path id="Path_1051" data-name="Path 1051" d="M521.955,489.371c0,1.261.008,2.523,0,3.785A5.928,5.928,0,0,1,516,499.105q-3.753.016-7.507,0a5.915,5.915,0,0,1-5.94-5.9c-.023-2.482-.008-4.964,0-7.445a5.756,5.756,0,0,1,5.433-6.038,72.953,72.953,0,0,1,8.8.029,5.726,5.726,0,0,1,5.165,5.586c.036,1.344.006,2.688.006,4.033Zm-3.975.063c0-1.24.008-2.48,0-3.72a1.95,1.95,0,0,0-2.043-2.086q-3.688-.022-7.377.031a1.93,1.93,0,0,0-2.035,2.084q-.013,3.627,0,7.253a1.965,1.965,0,0,0,2.115,2.134q3.628.01,7.254,0a1.96,1.96,0,0,0,2.087-2.1C517.987,491.832,517.98,490.634,517.98,489.435Z" transform="translate(-6.24 -5.597)" fill="#535b6d"/>
    </g>
    <g id="Group_526" data-name="Group 526" transform="translate(-322.028 4440.791)">
      <path id="Path_1050-2" data-name="Path 1050" d="M521.028,480.322a20.15,20.15,0,0,1-5.859,14.6c-3.322,3.359-6.682,6.681-10.017,10.026a4.608,4.608,0,0,1-5.225,1.118,7.187,7.187,0,0,1-2.647-1.708c-3.113-3.117-6.237-6.222-9.336-9.352a19.578,19.578,0,1,1,32.74-17.7C520.878,478.466,520.953,479.642,521.028,480.322Zm-35.763,1.387a16.116,16.116,0,0,0,4.929,10.933q4.639,4.667,9.311,9.3a7.147,7.147,0,0,0,1.58,1.049,1.346,1.346,0,0,0,1.76-.349c3.28-3.306,6.594-6.577,9.869-9.887a16.241,16.241,0,0,0,4.729-15.126,16.077,16.077,0,0,0-18.7-12.937C490.763,466.115,485.281,472.7,485.265,481.709Z" transform="translate(0 0)" fill="#8996b4"/>
      <path id="Path_1051-2" data-name="Path 1051" d="M518.314,487.54c0,1.025.006,2.05,0,3.075a4.817,4.817,0,0,1-4.839,4.834q-3.049.013-6.1,0a4.806,4.806,0,0,1-4.827-4.792c-.019-2.017-.006-4.033,0-6.049a4.677,4.677,0,0,1,4.414-4.906,59.275,59.275,0,0,1,7.15.024,4.653,4.653,0,0,1,4.2,4.538c.029,1.092.005,2.184.005,3.277Zm-3.23.051c0-1.007.007-2.015,0-3.022a1.584,1.584,0,0,0-1.66-1.695q-3-.018-5.994.025a1.568,1.568,0,0,0-1.654,1.693q-.01,2.947,0,5.893a1.6,1.6,0,0,0,1.719,1.734q2.948.008,5.894,0a1.592,1.592,0,0,0,1.7-1.706C515.09,489.54,515.085,488.566,515.085,487.592Z" transform="translate(-8.915 -7.996)" fill="#8996b4"/>
    </g>
  </g>
</svg>
