<svg xmlns="http://www.w3.org/2000/svg" width="450.025" height="72.443" viewBox="0 0 450.025 72.443">
  <g id="Group_501" data-name="Group 501" transform="translate(-94.475 -83)">
    <g id="Group_499" data-name="Group 499" transform="translate(-18 5.253)">
      <path id="Path_238" data-name="Path 238" d="M1271.669,534.473a4.09,4.09,0,0,1-4,4.086,4.208,4.208,0,0,1-4.161-4.085,4.083,4.083,0,0,1,4.223-4.075A3.893,3.893,0,0,1,1271.669,534.473Z" transform="translate(-818.906 -441.571)" fill="#fff"/>
      <path id="Path_239" data-name="Path 239" d="M1334.67,534.473a4.091,4.091,0,0,1-4,4.086,4.208,4.208,0,0,1-4.16-4.085,4.082,4.082,0,0,1,4.222-4.075A3.894,3.894,0,0,1,1334.67,534.473Z" transform="translate(-856.822 -441.571)" fill="#fff"/>
      <g id="Group_16" data-name="Group 16" transform="translate(198.668 88.747)">
        <path id="Path_240" data-name="Path 240" d="M663.231,585.46a10.911,10.911,0,0,1-5.97-1.7,11.851,11.851,0,0,1-4.157-4.581,13.8,13.8,0,0,1-1.507-6.465V558.306h-2.036a3.745,3.745,0,0,1-2.634-.951,3.185,3.185,0,0,1-1.056-2.432,3.328,3.328,0,0,1,1.057-2.555,3.745,3.745,0,0,1,2.634-.95H651.6v-8.071a3.876,3.876,0,1,1,7.75,0v8.071h4.438a3.747,3.747,0,0,1,2.633.95,3.33,3.33,0,0,1,1.057,2.555,3.187,3.187,0,0,1-1.057,2.432,3.748,3.748,0,0,1-2.634.951h-4.438v14.413a5.5,5.5,0,0,0,1.176,3.622,3.35,3.35,0,0,0,2.708,1.369h2.094a3.206,3.206,0,0,1,2.472,1.127,3.994,3.994,0,0,1,.972,2.748,3.55,3.55,0,0,1-1.3,2.824,4.69,4.69,0,0,1-3.132,1.051Z" transform="translate(-645.871 -535.778)" fill="#fff"/>
        <path id="Path_241" data-name="Path 241" d="M722.578,601.095a3.927,3.927,0,0,1-2.831-.992,3.831,3.831,0,0,1-1.044-2.883V569.7a3.577,3.577,0,0,1,3.875-3.875,3.906,3.906,0,0,1,2.872,1,3.555,3.555,0,0,1,.962,2.149,14.766,14.766,0,0,1,2.428-1.7A14.487,14.487,0,0,1,736,565.451a10.755,10.755,0,0,1,5.95,1.333c1.893,1.252,1.978,2.718,1.717,3.727a3.108,3.108,0,0,1-.952,1.721,3.235,3.235,0,0,1-1.586.772,3.9,3.9,0,0,1-.7.063,4.889,4.889,0,0,1-1.1-.132,19.6,19.6,0,0,0-3.856-.413,13.733,13.733,0,0,0-2.878.292,8.859,8.859,0,0,0-4.556,2.3,5.581,5.581,0,0,0-1.588,4.121v17.98a3.929,3.929,0,0,1-.992,2.831A3.831,3.831,0,0,1,722.578,601.095Z" transform="translate(-689.702 -551.412)" fill="#fff"/>
        <path id="Path_242" data-name="Path 242" d="M799.9,601.528a15.673,15.673,0,0,1-8.491-2.37,16.824,16.824,0,0,1-5.912-6.394,19.008,19.008,0,0,1-2.157-9.089,17.968,17.968,0,0,1,2.355-9.143,17.489,17.489,0,0,1,6.383-6.415,17.772,17.772,0,0,1,24.428,6.415,17.986,17.986,0,0,1,2.355,9.143v13.731a3.937,3.937,0,1,1-7.873,0v-.263a16.708,16.708,0,0,1-2.6,2.015A15.679,15.679,0,0,1,799.9,601.528Zm1.232-28.632a9.823,9.823,0,0,0-5.16,1.393,10.146,10.146,0,0,0-3.656,3.829,11.343,11.343,0,0,0-1.348,5.557,11.206,11.206,0,0,0,1.348,5.5A10.12,10.12,0,0,0,795.973,593a10.309,10.309,0,0,0,10.348,0,10,10,0,0,0,3.595-3.826,11.424,11.424,0,0,0,1.32-5.5,11.558,11.558,0,0,0-1.32-5.563,10,10,0,0,0-3.595-3.825A9.778,9.778,0,0,0,801.134,572.9Z" transform="translate(-728.604 -551.599)" fill="#fff"/>
        <path id="Path_243" data-name="Path 243" d="M892.207,601.741a4,4,0,0,1-3.664-2.464L875.478,571.73a3.28,3.28,0,0,1-.114-2.7,3.712,3.712,0,0,1,1.97-2,3.358,3.358,0,0,1,2.724-.218,3.626,3.626,0,0,1,2.077,1.8l10,21.561,9.9-21.561a3.617,3.617,0,0,1,2.151-1.8,3.77,3.77,0,0,1,1.161-.187,4.046,4.046,0,0,1,1.735.409,3.365,3.365,0,0,1,1.888,1.995,3.443,3.443,0,0,1-.154,2.7l-13.055,27.526A3.76,3.76,0,0,1,892.207,601.741Z" transform="translate(-783.841 -552.119)" fill="#fff"/>
        <path id="Path_244" data-name="Path 244" d="M983.077,601.528a19.39,19.39,0,0,1-9.466-2.284,16.839,16.839,0,0,1-6.523-6.33,18.054,18.054,0,0,1-2.356-9.238,18.98,18.98,0,0,1,2.224-9.282,16.4,16.4,0,0,1,6.177-6.338,17.685,17.685,0,0,1,9.021-2.294A16.281,16.281,0,0,1,990.823,568a14.69,14.69,0,0,1,5.562,6.179,20.254,20.254,0,0,1,1.9,8.938,3.36,3.36,0,0,1-1.044,2.513,3.6,3.6,0,0,1-2.584.993h-22.44a10.283,10.283,0,0,0,1.084,2.682,10.5,10.5,0,0,0,3.954,3.9,11.637,11.637,0,0,0,5.826,1.435,10.939,10.939,0,0,0,3.645-.662,11.44,11.44,0,0,0,3.02-1.518,4.3,4.3,0,0,1,2.456-.867l.115,0a3.468,3.468,0,0,1,2.3.837,3.709,3.709,0,0,1,1.389,2.6,2.962,2.962,0,0,1-1.3,2.586,17.882,17.882,0,0,1-5.434,2.831A19.473,19.473,0,0,1,983.077,601.528Zm7.8-21.42a11.365,11.365,0,0,0-.88-2.646,8.185,8.185,0,0,0-7.841-4.813,10.483,10.483,0,0,0-5.585,1.421,9.178,9.178,0,0,0-3.488,3.886,11.7,11.7,0,0,0-.784,2.152Z" transform="translate(-837.766 -551.599)" fill="#fff"/>
        <path id="Path_245" data-name="Path 245" d="M1072.031,579.877a8.937,8.937,0,0,1-5.262-1.623,10.64,10.64,0,0,1-3.529-4.353,14.839,14.839,0,0,1-1.242-6.212V534.069a3.876,3.876,0,1,1,7.75,0v33.619a6.635,6.635,0,0,0,.753,3.355c.566.971,1.144,1.083,1.529,1.083h1.54a3.337,3.337,0,0,1,2.595,1.127,3.993,3.993,0,0,1,.972,2.748,3.456,3.456,0,0,1-1.494,2.858,5.751,5.751,0,0,1-3.489,1.017Z" transform="translate(-896.303 -530.194)" fill="#fff"/>
        <path id="Path_246" data-name="Path 246" d="M1170.25,580.123a17.69,17.69,0,0,1-9.053-2.356,17.478,17.478,0,0,1-6.383-6.415,17.976,17.976,0,0,1-2.355-9.143,19.019,19.019,0,0,1,2.157-9.089,16.839,16.839,0,0,1,5.912-6.393,15.677,15.677,0,0,1,8.491-2.37,15.906,15.906,0,0,1,7.062,1.59,16.2,16.2,0,0,1,4.025,2.779V534.131a3.8,3.8,0,0,1,1.136-2.851,3.923,3.923,0,0,1,6.738,2.851v28.078a17.981,17.981,0,0,1-2.355,9.143,17.363,17.363,0,0,1-15.375,8.771Zm0-28.632a9.822,9.822,0,0,0-5.16,1.393,10.2,10.2,0,0,0-3.658,3.8,11.167,11.167,0,0,0-1.346,5.523,11.38,11.38,0,0,0,1.35,5.529,10.062,10.062,0,0,0,3.654,3.856,10.306,10.306,0,0,0,10.347,0,9.929,9.929,0,0,0,3.593-3.853,11.6,11.6,0,0,0,1.322-5.536,11.381,11.381,0,0,0-1.318-5.529,10.062,10.062,0,0,0-3.6-3.8A9.777,9.777,0,0,0,1170.25,551.491Z" transform="translate(-950.744 -530.194)" fill="#fff"/>
        <path id="Path_247" data-name="Path 247" d="M1279.434,601.868a16.569,16.569,0,0,1-7.983-1.913,13.943,13.943,0,0,1-5.613-5.641,18.466,18.466,0,0,1-2.039-9.006V570.161a3.937,3.937,0,1,1,7.873,0v15.147a10.578,10.578,0,0,0,1.187,5.3,7.2,7.2,0,0,0,3.167,3.006,10.514,10.514,0,0,0,4.64,1,9.53,9.53,0,0,0,4.35-.961,7.952,7.952,0,0,0,3-2.575,6.055,6.055,0,0,0,1.091-3.55V570.161a3.8,3.8,0,0,1,1.136-2.851,3.923,3.923,0,0,1,6.738,2.851v27.462a3.889,3.889,0,0,1-1.086,2.8,4.108,4.108,0,0,1-5.662.009,3.718,3.718,0,0,1-1.012-1.8,15.07,15.07,0,0,1-2.042,1.35A15.806,15.806,0,0,1,1279.434,601.868Z" transform="translate(-1017.75 -551.878)" fill="#fff"/>
        <path id="Path_248" data-name="Path 248" d="M1384.423,580.123a17.689,17.689,0,0,1-9.053-2.356,17.48,17.48,0,0,1-6.383-6.415,17.979,17.979,0,0,1-2.354-9.143,19.012,19.012,0,0,1,2.157-9.089,16.836,16.836,0,0,1,5.911-6.393,15.676,15.676,0,0,1,8.491-2.37,15.907,15.907,0,0,1,7.063,1.59,16.2,16.2,0,0,1,4.025,2.779V534.131a3.8,3.8,0,0,1,1.136-2.851,3.923,3.923,0,0,1,6.737,2.851v28.078a17.993,17.993,0,0,1-2.355,9.143,17.364,17.364,0,0,1-15.375,8.771Zm0-28.632a9.82,9.82,0,0,0-5.16,1.393,10.205,10.205,0,0,0-3.658,3.8,11.169,11.169,0,0,0-1.346,5.523,11.384,11.384,0,0,0,1.349,5.529,10.062,10.062,0,0,0,3.655,3.856,10.306,10.306,0,0,0,10.347,0,9.937,9.937,0,0,0,3.593-3.853,11.6,11.6,0,0,0,1.322-5.536,11.378,11.378,0,0,0-1.318-5.529,10.064,10.064,0,0,0-3.6-3.8A9.78,9.78,0,0,0,1384.423,551.491Z" transform="translate(-1079.636 -530.194)" fill="#fff"/>
        <path id="Path_249" data-name="Path 249" d="M1493.687,601.528a19.394,19.394,0,0,1-9.467-2.284,16.832,16.832,0,0,1-6.522-6.33,18.056,18.056,0,0,1-2.356-9.238,18.978,18.978,0,0,1,2.223-9.282,16.393,16.393,0,0,1,6.177-6.338,17.688,17.688,0,0,1,9.021-2.294,16.277,16.277,0,0,1,8.669,2.243,14.7,14.7,0,0,1,5.563,6.178,20.256,20.256,0,0,1,1.9,8.939,3.357,3.357,0,0,1-1.044,2.514,3.6,3.6,0,0,1-2.585.992h-22.44a10.28,10.28,0,0,0,1.084,2.682,10.5,10.5,0,0,0,3.954,3.9,11.634,11.634,0,0,0,5.826,1.435,10.942,10.942,0,0,0,3.645-.662,11.433,11.433,0,0,0,3.021-1.518,4.3,4.3,0,0,1,2.456-.867l.115,0a3.468,3.468,0,0,1,2.3.837,3.709,3.709,0,0,1,1.39,2.6,2.963,2.963,0,0,1-1.3,2.586,17.866,17.866,0,0,1-5.433,2.831A19.474,19.474,0,0,1,1493.687,601.528Zm7.8-21.42a11.371,11.371,0,0,0-.88-2.646,8.185,8.185,0,0,0-7.842-4.813,10.483,10.483,0,0,0-5.585,1.421,9.182,9.182,0,0,0-3.488,3.886,11.719,11.719,0,0,0-.784,2.152Z" transform="translate(-1145.059 -551.599)" fill="#fff"/>
      </g>
    </g>
    <g id="Group_500" data-name="Group 500" transform="translate(14847.475 -2503)">
      <g id="Group_14" data-name="Group 14" transform="translate(-14723.516 2586)">
        <g id="Group_13" data-name="Group 13">
          <path id="Path_234" data-name="Path 234" d="M494.2,558.225a19.114,19.114,0,0,1-5.577,12.3c-4.429,4.587-8.874,9.158-13.281,13.766-.681.712-1.035.724-1.752-.034-3.66-3.871-7.4-7.667-11.113-11.487-2.523-2.594-4.9-5.267-6.261-8.723a19.716,19.716,0,0,1,15.276-26.738C483.436,535.462,494.2,544.684,494.2,558.225ZM474.48,566.32a9.461,9.461,0,0,0,9.774-9.653,9.771,9.771,0,1,0-19.542.095A9.609,9.609,0,0,0,474.48,566.32Z" transform="translate(-454.824 -512.383)" fill="#fff"/>
          <path id="Path_235" data-name="Path 235" d="M505.647,467.91a9.948,9.948,0,0,1-9.728,9.939,10.235,10.235,0,0,1-10.12-9.937A9.93,9.93,0,0,1,496.07,458,9.472,9.472,0,0,1,505.647,467.91Z" transform="translate(-476.127 -458)" fill="#fff"/>
        </g>
      </g>
      <g id="Group_15" data-name="Group 15" transform="translate(-14753 2586)">
        <path id="Path_236" data-name="Path 236" d="M399.776,558.225a19.115,19.115,0,0,1-5.577,12.3c-4.429,4.587-8.874,9.158-13.281,13.766-.681.712-1.035.724-1.752-.034-3.66-3.871-7.4-7.667-11.113-11.487-2.523-2.594-4.9-5.267-6.261-8.723a19.716,19.716,0,0,1,15.276-26.738C389.014,535.462,399.777,544.684,399.776,558.225Zm-19.719,8.095a9.461,9.461,0,0,0,9.775-9.653,9.771,9.771,0,1,0-19.542.095A9.609,9.609,0,0,0,380.058,566.32Z" transform="translate(-360.402 -512.383)" fill="#fff"/>
        <path id="Path_237" data-name="Path 237" d="M411.225,467.91a9.948,9.948,0,0,1-9.728,9.939,10.235,10.235,0,0,1-10.12-9.937A9.93,9.93,0,0,1,401.648,458,9.472,9.472,0,0,1,411.225,467.91Z" transform="translate(-381.705 -458)" fill="#fff"/>
      </g>
    </g>
  </g>
</svg>
