<svg xmlns="http://www.w3.org/2000/svg" width="51.332" height="51" viewBox="0 0 51.332 51">
  <g id="Group_485" data-name="Group 485" transform="translate(-98.056 -158.507)">
    <path id="Path_1027" data-name="Path 1027" d="M98.556,185.224c.4-6.257,3.039-11.2,8.723-14.167a13.08,13.08,0,0,1,15.146,2.318,16.292,16.292,0,0,1,5.308,11.865,14.156,14.156,0,0,1-1.311,5.84,52.462,52.462,0,0,1-7.14,11.693,53.684,53.684,0,0,1-4.526,5.281c-1.25,1.252-1.982,1.29-3.2,0A60.813,60.813,0,0,1,100.1,191.583,15.272,15.272,0,0,1,98.556,185.224Zm26.525.347a14.852,14.852,0,0,0-1.782-7.189,11.428,11.428,0,0,0-16.765-3.969c-3.52,2.558-5.048,6.188-5.295,10.434a12.251,12.251,0,0,0,1.367,5.921,61.3,61.3,0,0,0,10.288,14.874c.324.362.442.073.605-.108a63.6,63.6,0,0,0,9.631-13.568A14.616,14.616,0,0,0,125.081,185.571Z" fill="#374157" stroke="#374157" stroke-width="1"/>
    <path id="Path_1028" data-name="Path 1028" d="M148.867,173.038a12.472,12.472,0,0,1-1.378,6.122,51.168,51.168,0,0,1-7.091,11.1,43.808,43.808,0,0,1-3.12,3.55,5.267,5.267,0,0,1-.706.593,1.391,1.391,0,0,1-1.753-.031,22.245,22.245,0,0,1-3.293-3.455c-.532-.617-1.029-1.264-1.526-1.91a1.34,1.34,0,0,1,.154-1.86A1.28,1.28,0,0,1,132,187.3c1.088,1.261,2.144,2.551,3.21,3.832.443.532.456.548.9.046a54.8,54.8,0,0,0,8.911-12.932,11.546,11.546,0,0,0,1.254-5.773c-.317-4.533-2.837-8.605-7-10.15a10.043,10.043,0,0,0-12.4,4.546,16.446,16.446,0,0,0-1.171,2.566,1.279,1.279,0,0,1-1.575.889,1.3,1.3,0,0,1-.919-1.781,14.078,14.078,0,0,1,6.506-7.923,11.7,11.7,0,0,1,5.8-1.613,12.215,12.215,0,0,1,8.617,3.432,14.858,14.858,0,0,1,4.728,9.233A9.229,9.229,0,0,1,148.867,173.038Z" fill="#374157" stroke="#374157" stroke-width="1" opacity="0.77"/>
    <path id="Path_1029" data-name="Path 1029" d="M129.285,173.192a6.422,6.422,0,1,1,6.438,6.472A6.689,6.689,0,0,1,129.285,173.192Zm10.157-.005a3.576,3.576,0,0,0-3.7-3.866,3.859,3.859,0,1,0,3.7,3.866Z" fill="#374157" stroke="#374157" stroke-width="1" opacity="0.77"/>
    <path id="Path_1030" data-name="Path 1030" d="M113.139,192.272a7.072,7.072,0,1,1,7.013-7.056A7.3,7.3,0,0,1,113.139,192.272Zm4.344-7.052a4.329,4.329,0,1,0-4.349,4.4A4.169,4.169,0,0,0,117.483,185.22Z" fill="#374157" stroke="#374157" stroke-width="1"/>
  </g>
</svg>
